<svg xmlns="http://www.w3.org/2000/svg" xmlns:xlink="http://www.w3.org/1999/xlink" contentStyleType="text/css" height="1213.5417px" preserveAspectRatio="none" style="width:1025px;height:1213px;" version="1.1" viewBox="0 0 1025 1213" width="1025px" zoomAndPan="magnify"><defs><linearGradient id="g1p5h772op542k0" x1="50%" x2="50%" y1="0%" y2="100%"><stop offset="0%" stop-color="#FFFFFF"/><stop offset="100%" stop-color="#EEEEEE"/></linearGradient><linearGradient id="g1p5h772op542k1" x1="50%" x2="50%" y1="0%" y2="100%"><stop offset="0%" stop-color="#F18E3E"/><stop offset="100%" stop-color="#EC7211"/></linearGradient></defs><g><rect fill="url(#g1p5h772op542k0)" height="24.9674" style="stroke:url(#g1p5h772op542k0);stroke-width:1.0416666666666667;" width="990.625" x="15.625" y="11.4583"/><ellipse cx="94.7917" cy="52.0508" fill="#0073BB" rx="10.4167" ry="10.4167" style="stroke:#222222;stroke-width:1.0416666666666667;"/><rect fill="url(#g1p5h772op542k1)" height="45.8008" rx="4.1667" ry="4.1667" style="stroke:#EC7211;stroke-width:0.5208333333333334;" width="140.625" x="24.4792" y="83.3008"/><text fill="#FFFFFF" font-family="Verdana" font-size="12.5" lengthAdjust="spacing" textLength="109.375" x="40.1042" y="110.5286">Parse event JSON</text><rect fill="url(#g1p5h772op542k1)" height="45.8008" rx="4.1667" ry="4.1667" style="stroke:#EC7211;stroke-width:0.5208333333333334;" width="135.4167" x="27.0833" y="1111.9466"/><text fill="#FFFFFF" font-family="Verdana" font-size="12.5" lengthAdjust="spacing" textLength="104.1667" x="42.7083" y="1139.1744">Return response</text><ellipse cx="94.7917" cy="1190.0391" fill="none" rx="11.4583" ry="11.4583" style="stroke:#222222;stroke-width:1.0416666666666667;"/><ellipse cx="94.7917" cy="1190.0391" fill="#222222" rx="6.25" ry="6.25" style="stroke:#222222;stroke-width:1.0416666666666667;"/><line style="stroke:#0073BB;stroke-width:2.0833333333333335;" x1="15.625" x2="15.625" y1="11.4583" y2="1201.4974"/><rect fill="url(#g1p5h772op542k1)" height="45.8008" rx="4.1667" ry="4.1667" style="stroke:#EC7211;stroke-width:0.5208333333333334;" width="159.375" x="201.0417" y="149.9349"/><text fill="#FFFFFF" font-family="Verdana" font-size="12.5" lengthAdjust="spacing" textLength="128.125" x="216.6667" y="177.1627">Log start of process</text><rect fill="none" height="304.0039" rx="4.1667" ry="4.1667" style="stroke:#EC7211;stroke-width:1.5625;" width="205.2083" x="178.125" y="339.4206"/><path d="M300,339.4206 L300,357.0964 L289.5833,367.513 L178.125,367.513 " fill="none" style="stroke:#EC7211;stroke-width:1.5625;"/><text fill="#EC7211" font-family="Verdana" font-size="12.5" lengthAdjust="spacing" textLength="101.0417" x="186.4583" y="357.2734">Processing Data</text><rect fill="url(#g1p5h772op542k1)" height="45.8008" rx="4.1667" ry="4.1667" style="stroke:#EC7211;stroke-width:0.5208333333333334;" width="164.5833" x="198.4375" y="585.1237"/><text fill="#FFFFFF" font-family="Verdana" font-size="12.5" lengthAdjust="spacing" textLength="133.3333" x="214.0625" y="612.3515">Log validation results</text><rect fill="none" height="304.0039" rx="4.1667" ry="4.1667" style="stroke:#EC7211;stroke-width:1.5625;" width="180.2083" x="190.625" y="653.8411"/><path d="M344.7917,653.8411 L344.7917,671.5169 L334.375,681.9336 L190.625,681.9336 " fill="none" style="stroke:#EC7211;stroke-width:1.5625;"/><text fill="#EC7211" font-family="Verdana" font-size="12.5" lengthAdjust="spacing" textLength="133.3333" x="198.9583" y="671.6939">Database Operations</text><rect fill="url(#g1p5h772op542k1)" height="45.8008" rx="4.1667" ry="4.1667" style="stroke:#EC7211;stroke-width:0.5208333333333334;" width="159.375" x="201.0417" y="899.5443"/><text fill="#FFFFFF" font-family="Verdana" font-size="12.5" lengthAdjust="spacing" textLength="128.125" x="216.6667" y="926.7721">Log insertion results</text><rect fill="url(#g1p5h772op542k1)" height="45.8008" rx="4.1667" ry="4.1667" style="stroke:#EC7211;stroke-width:0.5208333333333334;" width="155.2083" x="203.125" y="1045.3125"/><text fill="#FFFFFF" font-family="Verdana" font-size="12.5" lengthAdjust="spacing" textLength="123.9583" x="218.75" y="1072.5403">Log end of process</text><line style="stroke:#0073BB;stroke-width:2.0833333333333335;" x1="171.875" x2="171.875" y1="11.4583" y2="1201.4974"/><rect fill="url(#g1p5h772op542k1)" height="45.8008" rx="4.1667" ry="4.1667" style="stroke:#EC7211;stroke-width:0.5208333333333334;" width="189.5833" x="393.75" y="216.569"/><text fill="#FFFFFF" font-family="Verdana" font-size="12.5" lengthAdjust="spacing" textLength="158.3333" x="409.375" y="243.7968">Get database credentials</text><line style="stroke:#0073BB;stroke-width:2.0833333333333335;" x1="387.5" x2="387.5" y1="11.4583" y2="1201.4974"/><rect fill="url(#g1p5h772op542k1)" height="45.8008" rx="4.1667" ry="4.1667" style="stroke:#EC7211;stroke-width:0.5208333333333334;" width="159.375" x="604.1667" y="283.2031"/><text fill="#FFFFFF" font-family="Verdana" font-size="12.5" lengthAdjust="spacing" textLength="128.125" x="619.7917" y="310.4309">Establish connection</text><rect fill="none" height="304.0039" rx="4.1667" ry="4.1667" style="stroke:#EC7211;stroke-width:1.5625;" width="180.2083" x="593.75" y="653.8411"/><path d="M747.9167,653.8411 L747.9167,671.5169 L737.5,681.9336 L593.75,681.9336 " fill="none" style="stroke:#EC7211;stroke-width:1.5625;"/><text fill="#EC7211" font-family="Verdana" font-size="12.5" lengthAdjust="spacing" textLength="133.3333" x="602.0833" y="671.6939">Database Operations</text><rect fill="url(#g1p5h772op542k1)" height="45.8008" rx="4.1667" ry="4.1667" style="stroke:#EC7211;stroke-width:0.5208333333333334;" width="152.0833" x="607.8125" y="699.6419"/><text fill="#FFFFFF" font-family="Verdana" font-size="12.5" lengthAdjust="spacing" textLength="120.8333" x="623.4375" y="726.8697">Insert Departments</text><rect fill="url(#g1p5h772op542k1)" height="45.8008" rx="4.1667" ry="4.1667" style="stroke:#EC7211;stroke-width:0.5208333333333334;" width="98.9583" x="634.375" y="766.276"/><text fill="#FFFFFF" font-family="Verdana" font-size="12.5" lengthAdjust="spacing" textLength="67.7083" x="650" y="793.5038">Insert Jobs</text><rect fill="url(#g1p5h772op542k1)" height="45.8008" rx="4.1667" ry="4.1667" style="stroke:#EC7211;stroke-width:0.5208333333333334;" width="140.625" x="613.5417" y="832.9102"/><text fill="#FFFFFF" font-family="Verdana" font-size="12.5" lengthAdjust="spacing" textLength="109.375" x="629.1667" y="860.1379">Insert Employees</text><rect fill="url(#g1p5h772op542k1)" height="45.8008" rx="4.1667" ry="4.1667" style="stroke:#EC7211;stroke-width:0.5208333333333334;" width="161.4583" x="603.125" y="978.6784"/><text fill="#FFFFFF" font-family="Verdana" font-size="12.5" lengthAdjust="spacing" textLength="130.2083" x="618.75" y="1005.9062">Close DB connection</text><line style="stroke:#0073BB;stroke-width:2.0833333333333335;" x1="587.5" x2="587.5" y1="11.4583" y2="1201.4974"/><rect fill="none" height="304.0039" rx="4.1667" ry="4.1667" style="stroke:#EC7211;stroke-width:1.5625;" width="211.4583" x="784.375" y="339.4206"/><path d="M906.25,339.4206 L906.25,357.0964 L895.8333,367.513 L784.375,367.513 " fill="none" style="stroke:#EC7211;stroke-width:1.5625;"/><text fill="#EC7211" font-family="Verdana" font-size="12.5" lengthAdjust="spacing" textLength="101.0417" x="792.7083" y="357.2734">Processing Data</text><rect fill="url(#g1p5h772op542k1)" height="45.8008" rx="4.1667" ry="4.1667" style="stroke:#EC7211;stroke-width:0.5208333333333334;" width="190.625" x="794.7917" y="385.2214"/><text fill="#FFFFFF" font-family="Verdana" font-size="12.5" lengthAdjust="spacing" textLength="159.375" x="810.4167" y="412.4491">Validate Department data</text><rect fill="url(#g1p5h772op542k1)" height="45.8008" rx="4.1667" ry="4.1667" style="stroke:#EC7211;stroke-width:0.5208333333333334;" width="137.5" x="821.3542" y="451.8555"/><text fill="#FFFFFF" font-family="Verdana" font-size="12.5" lengthAdjust="spacing" textLength="106.25" x="836.9792" y="479.0833">Validate Job data</text><rect fill="url(#g1p5h772op542k1)" height="45.8008" rx="4.1667" ry="4.1667" style="stroke:#EC7211;stroke-width:0.5208333333333334;" width="179.1667" x="800.5208" y="518.4896"/><text fill="#FFFFFF" font-family="Verdana" font-size="12.5" lengthAdjust="spacing" textLength="147.9167" x="816.1458" y="545.7174">Validate Employee data</text><line style="stroke:#0073BB;stroke-width:2.0833333333333335;" x1="778.125" x2="778.125" y1="11.4583" y2="1201.4974"/><line style="stroke:#0073BB;stroke-width:2.0833333333333335;" x1="1000" x2="1000" y1="11.4583" y2="1201.4974"/><line style="stroke:#EC7211;stroke-width:3.125;" x1="94.7917" x2="94.7917" y1="62.4674" y2="83.3008"/><polygon fill="#EC7211" points="90.625,72.8841,94.7917,83.3008,98.9583,72.8841,94.7917,77.0508" style="stroke:#EC7211;stroke-width:1.0416666666666667;"/><line style="stroke:#EC7211;stroke-width:3.125;" x1="94.7917" x2="94.7917" y1="1157.7474" y2="1178.5807"/><polygon fill="#EC7211" points="90.625,1168.1641,94.7917,1178.5807,98.9583,1168.1641,94.7917,1172.3307" style="stroke:#EC7211;stroke-width:1.0416666666666667;"/><line style="stroke:#EC7211;stroke-width:3.125;" x1="683.8542" x2="683.8542" y1="745.4427" y2="766.276"/><polygon fill="#EC7211" points="679.6875,755.8594,683.8542,766.276,688.0208,755.8594,683.8542,760.026" style="stroke:#EC7211;stroke-width:1.0416666666666667;"/><line style="stroke:#EC7211;stroke-width:3.125;" x1="683.8542" x2="683.8542" y1="812.0768" y2="832.9102"/><polygon fill="#EC7211" points="679.6875,822.4935,683.8542,832.9102,688.0208,822.4935,683.8542,826.6602" style="stroke:#EC7211;stroke-width:1.0416666666666667;"/><line style="stroke:#EC7211;stroke-width:3.125;" x1="890.1042" x2="890.1042" y1="431.0221" y2="451.8555"/><polygon fill="#EC7211" points="885.9375,441.4388,890.1042,451.8555,894.2708,441.4388,890.1042,445.6055" style="stroke:#EC7211;stroke-width:1.0416666666666667;"/><line style="stroke:#EC7211;stroke-width:3.125;" x1="890.1042" x2="890.1042" y1="497.6563" y2="518.4896"/><polygon fill="#EC7211" points="885.9375,508.0729,890.1042,518.4896,894.2708,508.0729,890.1042,512.2396" style="stroke:#EC7211;stroke-width:1.0416666666666667;"/><line style="stroke:#EC7211;stroke-width:3.125;" x1="94.7917" x2="94.7917" y1="129.1016" y2="134.3099"/><line style="stroke:#EC7211;stroke-width:3.125;" x1="94.7917" x2="280.7292" y1="134.3099" y2="134.3099"/><line style="stroke:#EC7211;stroke-width:3.125;" x1="280.7292" x2="280.7292" y1="134.3099" y2="149.9349"/><polygon fill="#EC7211" points="276.5625,139.5182,280.7292,149.9349,284.8958,139.5182,280.7292,143.6849" style="stroke:#EC7211;stroke-width:1.0416666666666667;"/><line style="stroke:#EC7211;stroke-width:3.125;" x1="280.7292" x2="280.7292" y1="195.7357" y2="200.944"/><line style="stroke:#EC7211;stroke-width:3.125;" x1="280.7292" x2="488.5417" y1="200.944" y2="200.944"/><line style="stroke:#EC7211;stroke-width:3.125;" x1="488.5417" x2="488.5417" y1="200.944" y2="216.569"/><polygon fill="#EC7211" points="484.375,206.1523,488.5417,216.569,492.7083,206.1523,488.5417,210.319" style="stroke:#EC7211;stroke-width:1.0416666666666667;"/><line style="stroke:#EC7211;stroke-width:3.125;" x1="488.5417" x2="488.5417" y1="262.3698" y2="267.5781"/><line style="stroke:#EC7211;stroke-width:3.125;" x1="488.5417" x2="683.8542" y1="267.5781" y2="267.5781"/><line style="stroke:#EC7211;stroke-width:3.125;" x1="683.8542" x2="683.8542" y1="267.5781" y2="283.2031"/><polygon fill="#EC7211" points="679.6875,272.7865,683.8542,283.2031,688.0208,272.7865,683.8542,276.9531" style="stroke:#EC7211;stroke-width:1.0416666666666667;"/><line style="stroke:#EC7211;stroke-width:3.125;" x1="890.1042" x2="890.1042" y1="564.2904" y2="569.4987"/><line style="stroke:#EC7211;stroke-width:3.125;" x1="890.1042" x2="280.7292" y1="569.4987" y2="569.4987"/><line style="stroke:#EC7211;stroke-width:3.125;" x1="280.7292" x2="280.7292" y1="569.4987" y2="585.1237"/><polygon fill="#EC7211" points="276.5625,574.707,280.7292,585.1237,284.8958,574.707,280.7292,578.8737" style="stroke:#EC7211;stroke-width:1.0416666666666667;"/><line style="stroke:#EC7211;stroke-width:3.125;" x1="683.8542" x2="683.8542" y1="329.0039" y2="344.0918"/><line style="stroke:#EC7211;stroke-width:3.125;" x1="683.8542" x2="890.1042" y1="344.0918" y2="344.0918"/><line style="stroke:#EC7211;stroke-width:3.125;" x1="890.1042" x2="890.1042" y1="344.0918" y2="385.2214"/><polygon fill="#EC7211" points="885.9375,374.8047,890.1042,385.2214,894.2708,374.8047,890.1042,378.9714" style="stroke:#EC7211;stroke-width:1.0416666666666667;"/><line style="stroke:#EC7211;stroke-width:3.125;" x1="683.8542" x2="683.8542" y1="878.7109" y2="883.9193"/><line style="stroke:#EC7211;stroke-width:3.125;" x1="683.8542" x2="280.7292" y1="883.9193" y2="883.9193"/><line style="stroke:#EC7211;stroke-width:3.125;" x1="280.7292" x2="280.7292" y1="883.9193" y2="899.5443"/><polygon fill="#EC7211" points="276.5625,889.1276,280.7292,899.5443,284.8958,889.1276,280.7292,893.2943" style="stroke:#EC7211;stroke-width:1.0416666666666667;"/><line style="stroke:#EC7211;stroke-width:3.125;" x1="280.7292" x2="280.7292" y1="630.9245" y2="648.6328"/><line style="stroke:#EC7211;stroke-width:3.125;" x1="280.7292" x2="683.8542" y1="648.6328" y2="648.6328"/><line style="stroke:#EC7211;stroke-width:3.125;" x1="683.8542" x2="683.8542" y1="648.6328" y2="699.6419"/><polygon fill="#EC7211" points="679.6875,689.2253,683.8542,699.6419,688.0208,689.2253,683.8542,693.3919" style="stroke:#EC7211;stroke-width:1.0416666666666667;"/><line style="stroke:#EC7211;stroke-width:3.125;" x1="280.7292" x2="280.7292" y1="945.3451" y2="963.0534"/><line style="stroke:#EC7211;stroke-width:3.125;" x1="280.7292" x2="683.8542" y1="963.0534" y2="963.0534"/><line style="stroke:#EC7211;stroke-width:3.125;" x1="683.8542" x2="683.8542" y1="963.0534" y2="978.6784"/><polygon fill="#EC7211" points="679.6875,968.2617,683.8542,978.6784,688.0208,968.2617,683.8542,972.4284" style="stroke:#EC7211;stroke-width:1.0416666666666667;"/><line style="stroke:#EC7211;stroke-width:3.125;" x1="683.8542" x2="683.8542" y1="1024.4792" y2="1029.6875"/><line style="stroke:#EC7211;stroke-width:3.125;" x1="683.8542" x2="280.7292" y1="1029.6875" y2="1029.6875"/><line style="stroke:#EC7211;stroke-width:3.125;" x1="280.7292" x2="280.7292" y1="1029.6875" y2="1045.3125"/><polygon fill="#EC7211" points="276.5625,1034.8958,280.7292,1045.3125,284.8958,1034.8958,280.7292,1039.0625" style="stroke:#EC7211;stroke-width:1.0416666666666667;"/><line style="stroke:#EC7211;stroke-width:3.125;" x1="280.7292" x2="280.7292" y1="1091.1133" y2="1096.3216"/><line style="stroke:#EC7211;stroke-width:3.125;" x1="280.7292" x2="94.7917" y1="1096.3216" y2="1096.3216"/><line style="stroke:#EC7211;stroke-width:3.125;" x1="94.7917" x2="94.7917" y1="1096.3216" y2="1111.9466"/><polygon fill="#EC7211" points="90.625,1101.5299,94.7917,1111.9466,98.9583,1101.5299,94.7917,1105.6966" style="stroke:#EC7211;stroke-width:1.0416666666666667;"/><text fill="#EC7211" font-family="Verdana" font-size="12.5" lengthAdjust="spacing" textLength="135.4167" x="26.0417" y="28.2694">AWS Lambda Handler</text><text fill="#EC7211" font-family="Verdana" font-size="12.5" lengthAdjust="spacing" textLength="44.7917" x="257.2917" y="28.2694">Logger</text><text fill="#EC7211" font-family="Verdana" font-size="12.5" lengthAdjust="spacing" textLength="140.625" x="417.1875" y="28.2694">AWS Secrets Manager</text><text fill="#EC7211" font-family="Verdana" font-size="12.5" lengthAdjust="spacing" textLength="133.3333" x="616.1458" y="28.2694">Database Connection</text><text fill="#EC7211" font-family="Verdana" font-size="12.5" lengthAdjust="spacing" textLength="95.8333" x="841.1458" y="28.2694">Data Processor</text><!--SRC=[TL91JiCm4Bpx5KllV20vGLC1LQ4LaU2yIPRKacDRjbk427zdxT10GkkJDJEUdLtlLTXJHu3l_jeur2s9_kQrX0rsLODmZxfHv7hX0xeWiXqwJq17qW7MvVOf5wBVcBQDaemla7HWti0wKvFtKH3zIgeT1G-Fg75Gtr601WDMo8vCDkmfKQKNnGbV6gsf3j9eVh5Yyqf9luTwX5bjkQACTrZiXg9Ijn0j5l0fW4_oWn_ISF48PY-e90SWA2XQTB6d62YVqMjJdSLNdLNcW-WFESuYAUCyZeCwfdFa3ofmVr-Jp6ElMqikAVqazxyv9Ey7xOa7_HlTvnE2Gy-GKrn_AQfCkddI2t-nL8QXudRw5TDT8DsSsOJvPcNF50uk5RNSE-MyQyP-0m00]--></g></svg>