<svg xmlns="http://www.w3.org/2000/svg" xmlns:xlink="http://www.w3.org/1999/xlink" contentStyleType="text/css" height="835.4167px" preserveAspectRatio="none" style="width:890px;height:835px;" version="1.1" viewBox="0 0 890 835" width="890.625px" zoomAndPan="magnify"><defs><linearGradient id="g16blkgdpiphp80" x1="50%" x2="50%" y1="0%" y2="100%"><stop offset="0%" stop-color="#F18E3E"/><stop offset="100%" stop-color="#EC7211"/></linearGradient></defs><g><ellipse cx="168.75" cy="20.8333" fill="#0073BB" rx="10.4167" ry="10.4167" style="stroke:#222222;stroke-width:1.0416666666666667;"/><rect fill="url(#g16blkgdpiphp80)" height="45.8008" rx="4.1667" ry="4.1667" style="stroke:#EC7211;stroke-width:0.5208333333333334;" width="167.7083" x="84.8958" y="52.0833"/><text fill="#FFFFFF" font-family="Verdana" font-size="12.5" lengthAdjust="spacing" textLength="136.4583" x="100.5208" y="79.3111">Start Query Execution</text><path d="M316.6667,131.2012 L316.6667,144.7266 L295.8333,148.8932 L316.6667,153.0599 L316.6667,166.5853 A0,0 0 0 0 316.6667,166.5853 L717.7083,166.5853 A0,0 0 0 0 717.7083,166.5853 L717.7083,141.6178 L707.2917,131.2012 L316.6667,131.2012 A0,0 0 0 0 316.6667,131.2012 " fill="#0073BB" style="stroke:#005C96;stroke-width:1.0416666666666667;"/><path d="M707.2917,131.2012 L707.2917,141.6178 L717.7083,141.6178 L707.2917,131.2012 " fill="#0073BB" style="stroke:#005C96;stroke-width:1.0416666666666667;"/><text fill="#FFFFFF" font-family="Verdana" font-size="12.5" lengthAdjust="spacing" textLength="368.75" x="328.125" y="153.2206">Filtering records to only include those from the year 2021.</text><rect fill="url(#g16blkgdpiphp80)" height="60.3516" rx="4.1667" ry="4.1667" style="stroke:#EC7211;stroke-width:0.5208333333333334;" width="254.1667" x="41.6667" y="118.7174"/><text fill="#FFFFFF" font-family="Verdana" font-size="12.5" lengthAdjust="spacing" textLength="222.9167" x="57.2917" y="145.9452">Select data from 'employees' as 'e'</text><text fill="#FFFFFF" font-family="Verdana" font-size="12.5" lengthAdjust="spacing" textLength="213.5417" x="57.2917" y="160.496">Filter by YEAR(e.datetime) = 2021</text><rect fill="none" height="199.8372" rx="4.1667" ry="4.1667" style="stroke:#EC7211;stroke-width:1.5625;" width="840.625" x="35.4167" y="189.4857"/><path d="M153.125,189.4857 L153.125,207.1615 L142.7083,217.5781 L35.4167,217.5781 " fill="none" style="stroke:#EC7211;stroke-width:1.5625;"/><text fill="#EC7211" font-family="Verdana" font-size="12.5" lengthAdjust="spacing" textLength="96.875" x="43.75" y="207.3385">Join Operations</text><rect fill="url(#g16blkgdpiphp80)" height="60.3516" rx="4.1667" ry="4.1667" style="stroke:#EC7211;stroke-width:0.5208333333333334;" width="245.8333" x="45.8333" y="235.2865"/><text fill="#FFFFFF" font-family="Verdana" font-size="12.5" lengthAdjust="spacing" textLength="214.5833" x="61.4583" y="262.5142">Inner join with 'departments' as 'd'</text><text fill="#FFFFFF" font-family="Verdana" font-size="12.5" lengthAdjust="spacing" textLength="166.6667" x="61.4583" y="277.065">ON e.department_id = d.id</text><path d="M283.3333,328.9551 L283.3333,342.4805 L262.5,346.6471 L283.3333,350.8138 L283.3333,364.3392 A0,0 0 0 0 283.3333,364.3392 L865.625,364.3392 A0,0 0 0 0 865.625,364.3392 L865.625,339.3717 L855.2083,328.9551 L283.3333,328.9551 A0,0 0 0 0 283.3333,328.9551 " fill="#0073BB" style="stroke:#005C96;stroke-width:1.0416666666666667;"/><path d="M855.2083,328.9551 L855.2083,339.3717 L865.625,339.3717 L855.2083,328.9551 " fill="#0073BB" style="stroke:#005C96;stroke-width:1.0416666666666667;"/><text fill="#FFFFFF" font-family="Verdana" font-size="12.5" lengthAdjust="spacing" textLength="550" x="294.7917" y="350.9745">Joining with departments and jobs\nto enrich employee records with additional context.</text><rect fill="url(#g16blkgdpiphp80)" height="60.3516" rx="4.1667" ry="4.1667" style="stroke:#EC7211;stroke-width:0.5208333333333334;" width="187.5" x="75" y="316.4714"/><text fill="#FFFFFF" font-family="Verdana" font-size="12.5" lengthAdjust="spacing" textLength="156.25" x="90.625" y="343.6991">Inner join with 'jobs' as 'j'</text><text fill="#FFFFFF" font-family="Verdana" font-size="12.5" lengthAdjust="spacing" textLength="108.3333" x="90.625" y="358.2499">ON e.job_id = j.id</text><rect fill="none" height="185.2865" rx="4.1667" ry="4.1667" style="stroke:#EC7211;stroke-width:1.5625;" width="868.2292" x="11.4583" y="399.7396"/><path d="M194.7917,399.7396 L194.7917,417.4154 L184.375,427.832 L11.4583,427.832 " fill="none" style="stroke:#EC7211;stroke-width:1.5625;"/><text fill="#EC7211" font-family="Verdana" font-size="12.5" lengthAdjust="spacing" textLength="162.5" x="19.7917" y="417.5924">Aggregation and Counting</text><rect fill="url(#g16blkgdpiphp80)" height="45.8008" rx="4.1667" ry="4.1667" style="stroke:#EC7211;stroke-width:0.5208333333333334;" width="293.75" x="21.875" y="445.5404"/><text fill="#FFFFFF" font-family="Verdana" font-size="12.5" lengthAdjust="spacing" textLength="262.5" x="37.5" y="472.7681">Group by d.department_name, j.job_name</text><path d="M302.6042,524.6582 L302.6042,538.1836 L281.7708,542.3503 L302.6042,546.5169 L302.6042,560.0423 A0,0 0 0 0 302.6042,560.0423 L869.2708,560.0423 A0,0 0 0 0 869.2708,560.0423 L869.2708,535.0749 L858.8542,524.6582 L302.6042,524.6582 A0,0 0 0 0 302.6042,524.6582 " fill="#0073BB" style="stroke:#005C96;stroke-width:1.0416666666666667;"/><path d="M858.8542,524.6582 L858.8542,535.0749 L869.2708,535.0749 L858.8542,524.6582 " fill="#0073BB" style="stroke:#005C96;stroke-width:1.0416666666666667;"/><text fill="#FFFFFF" font-family="Verdana" font-size="12.5" lengthAdjust="spacing" textLength="534.375" x="314.0625" y="546.6777">Aggregating records by department and job, then counting occurrences per quarter.</text><rect fill="url(#g16blkgdpiphp80)" height="60.3516" rx="4.1667" ry="4.1667" style="stroke:#EC7211;stroke-width:0.5208333333333334;" width="226.0417" x="55.7292" y="512.1745"/><text fill="#FFFFFF" font-family="Verdana" font-size="12.5" lengthAdjust="spacing" textLength="194.7917" x="71.3542" y="539.4023">Count occurrences per quarter</text><text fill="#FFFFFF" font-family="Verdana" font-size="12.5" lengthAdjust="spacing" textLength="98.9583" x="71.3542" y="553.953">Q1, Q2, Q3, Q4</text><rect fill="none" height="185.2865" rx="4.1667" ry="4.1667" style="stroke:#EC7211;stroke-width:1.5625;" width="852.6042" x="11.9792" y="595.4427"/><path d="M167.1875,595.4427 L167.1875,613.1185 L156.7708,623.5352 L11.9792,623.5352 " fill="none" style="stroke:#EC7211;stroke-width:1.5625;"/><text fill="#EC7211" font-family="Verdana" font-size="12.5" lengthAdjust="spacing" textLength="134.375" x="20.3125" y="613.2955">Sorting and Selecting</text><rect fill="url(#g16blkgdpiphp80)" height="45.8008" rx="4.1667" ry="4.1667" style="stroke:#EC7211;stroke-width:0.5208333333333334;" width="292.7083" x="22.3958" y="641.2435"/><text fill="#FFFFFF" font-family="Verdana" font-size="12.5" lengthAdjust="spacing" textLength="261.4583" x="38.0208" y="668.4713">Order by d.department_name, j.job_name</text><path d="M309.375,720.3613 L309.375,733.8867 L288.5417,738.0534 L309.375,742.2201 L309.375,755.7454 A0,0 0 0 0 309.375,755.7454 L854.1667,755.7454 A0,0 0 0 0 854.1667,755.7454 L854.1667,730.778 L843.75,720.3613 L309.375,720.3613 A0,0 0 0 0 309.375,720.3613 " fill="#0073BB" style="stroke:#005C96;stroke-width:1.0416666666666667;"/><path d="M843.75,720.3613 L843.75,730.778 L854.1667,730.778 L843.75,720.3613 " fill="#0073BB" style="stroke:#005C96;stroke-width:1.0416666666666667;"/><text fill="#FFFFFF" font-family="Verdana" font-size="12.5" lengthAdjust="spacing" textLength="512.5" x="320.8333" y="742.3808">Sorting the aggregated data for clarity and selecting the relevant output columns.</text><rect fill="url(#g16blkgdpiphp80)" height="60.3516" rx="4.1667" ry="4.1667" style="stroke:#EC7211;stroke-width:0.5208333333333334;" width="239.5833" x="48.9583" y="707.8776"/><text fill="#FFFFFF" font-family="Verdana" font-size="12.5" lengthAdjust="spacing" textLength="194.7917" x="64.5833" y="735.1054">Select final columns for output:</text><text fill="#FFFFFF" font-family="Verdana" font-size="12.5" lengthAdjust="spacing" textLength="208.3333" x="64.5833" y="749.6562">department, job, Q1, Q2, Q3, Q4</text><ellipse cx="168.75" cy="813.0208" fill="none" rx="11.4583" ry="11.4583" style="stroke:#222222;stroke-width:1.0416666666666667;"/><ellipse cx="168.75" cy="813.0208" fill="#222222" rx="6.25" ry="6.25" style="stroke:#222222;stroke-width:1.0416666666666667;"/><line style="stroke:#EC7211;stroke-width:3.125;" x1="168.75" x2="168.75" y1="31.25" y2="52.0833"/><polygon fill="#EC7211" points="164.5833,41.6667,168.75,52.0833,172.9167,41.6667,168.75,45.8333" style="stroke:#EC7211;stroke-width:1.0416666666666667;"/><line style="stroke:#EC7211;stroke-width:3.125;" x1="168.75" x2="168.75" y1="97.8841" y2="118.7174"/><polygon fill="#EC7211" points="164.5833,108.3008,168.75,118.7174,172.9167,108.3008,168.75,112.4674" style="stroke:#EC7211;stroke-width:1.0416666666666667;"/><line style="stroke:#EC7211;stroke-width:3.125;" x1="168.75" x2="168.75" y1="295.638" y2="316.4714"/><polygon fill="#EC7211" points="164.5833,306.0547,168.75,316.4714,172.9167,306.0547,168.75,310.2214" style="stroke:#EC7211;stroke-width:1.0416666666666667;"/><line style="stroke:#EC7211;stroke-width:3.125;" x1="168.75" x2="168.75" y1="179.069" y2="235.2865"/><polygon fill="#EC7211" points="164.5833,224.8698,168.75,235.2865,172.9167,224.8698,168.75,229.0365" style="stroke:#EC7211;stroke-width:1.0416666666666667;"/><line style="stroke:#EC7211;stroke-width:3.125;" x1="168.75" x2="168.75" y1="491.3411" y2="512.1745"/><polygon fill="#EC7211" points="164.5833,501.7578,168.75,512.1745,172.9167,501.7578,168.75,505.9245" style="stroke:#EC7211;stroke-width:1.0416666666666667;"/><line style="stroke:#EC7211;stroke-width:3.125;" x1="168.75" x2="168.75" y1="376.8229" y2="445.5404"/><polygon fill="#EC7211" points="164.5833,435.1237,168.75,445.5404,172.9167,435.1237,168.75,439.2904" style="stroke:#EC7211;stroke-width:1.0416666666666667;"/><line style="stroke:#EC7211;stroke-width:3.125;" x1="168.75" x2="168.75" y1="687.0443" y2="707.8776"/><polygon fill="#EC7211" points="164.5833,697.4609,168.75,707.8776,172.9167,697.4609,168.75,701.6276" style="stroke:#EC7211;stroke-width:1.0416666666666667;"/><line style="stroke:#EC7211;stroke-width:3.125;" x1="168.75" x2="168.75" y1="572.526" y2="641.2435"/><polygon fill="#EC7211" points="164.5833,630.8268,168.75,641.2435,172.9167,630.8268,168.75,634.9935" style="stroke:#EC7211;stroke-width:1.0416666666666667;"/><line style="stroke:#EC7211;stroke-width:3.125;" x1="168.75" x2="168.75" y1="768.2292" y2="801.5625"/><polygon fill="#EC7211" points="164.5833,791.1458,168.75,801.5625,172.9167,791.1458,168.75,795.3125" style="stroke:#EC7211;stroke-width:1.0416666666666667;"/><!--SRC=[ZLDDRnCn4BtlhnXw2KXfH0EdH1oggY0u48MUa29LhZtPEDeTB-DPsXNYlpFsVf0A1NKbQzThlpVllR5VoG5h1FCOBmCRAh68ObYArLrwmRP5xk3s2MqhFj2wq0Miq0eu8mRs76gOOTrKeKECCp1HfxCTVVIL8CD31zzlhx-zneLkH_4rle4Fi7oxl5eN50I1VNcG0g3Vxwa4HXlOHP00WQeEFDcgTGXo217xWYePEZISYHO5aeD4LXIDIlP99rny2PvWqo2RD8yNy4kh0Am-4wckOrfzz7A0cSE4gf5aaEzK_kOhgEHfvTuxbUqMtgtFi1p3mm0_Zd3zrUEE4-wPvVGabSbq9ZbH0aOz9SuTQGv8xEq1nfYdY3BAE9Sjcmfi8C4dMMJoAPNVptAvBal6CeUIYzo4baGbJ05zuj0sgN7kD00oDSxLIJALleSSCXg2jIqpaiK8cZZyQ1M6lAFjrHosIntlTBm_ay6awAJvgVnKV0nZdXfFwh9NVAxiV-tV1SxOHDaVv5Fl6tRzeNs9z-4Ux7qVVTNM564V648hJIkh7VtbcFVwNvJ7A36TSZDaWswuRqflAyDUkcmXZXRoRjRPJvCQaXMCeluD94fe_W00]--></g></svg>