<svg xmlns="http://www.w3.org/2000/svg" xmlns:xlink="http://www.w3.org/1999/xlink" contentStyleType="text/css" height="571.875px" preserveAspectRatio="none" style="width:1200px;height:571px;" version="1.1" viewBox="0 0 1200 571" width="1200px" zoomAndPan="magnify"><defs><linearGradient id="g1x0sif7n5olfd0" x1="50%" x2="50%" y1="0%" y2="100%"><stop offset="0%" stop-color="#FFFFFF"/><stop offset="100%" stop-color="#EEEEEE"/></linearGradient><linearGradient id="g1x0sif7n5olfd1" x1="50%" x2="50%" y1="0%" y2="100%"><stop offset="0%" stop-color="#F18E3E"/><stop offset="100%" stop-color="#EC7211"/></linearGradient></defs><g><rect fill="url(#g1x0sif7n5olfd0)" height="24.9674" style="stroke:url(#g1x0sif7n5olfd0);stroke-width:1.0416666666666667;" width="1166.1458" x="15.625" y="11.4583"/><ellipse cx="133.8542" cy="52.0508" fill="#0073BB" rx="10.4167" ry="10.4167" style="stroke:#222222;stroke-width:1.0416666666666667;"/><rect fill="url(#g1x0sif7n5olfd1)" height="45.8008" rx="4.1667" ry="4.1667" style="stroke:#EC7211;stroke-width:0.5208333333333334;" width="198.9583" x="34.375" y="83.3008"/><text fill="#FFFFFF" font-family="Verdana" font-size="12.5" lengthAdjust="spacing" textLength="167.7083" x="50" y="110.5286">Receive event and context</text><rect fill="#1D8102" height="6.25" rx="2.6042" ry="2.6042" style="stroke:#1D8102;stroke-width:1.0416666666666667;" width="380.7292" x="21.875" y="216.569"/><rect fill="url(#g1x0sif7n5olfd1)" height="45.8008" rx="4.1667" ry="4.1667" style="stroke:#EC7211;stroke-width:0.5208333333333334;" width="306.25" x="83.8542" y="243.6523"/><text fill="#FFFFFF" font-family="Verdana" font-size="12.5" lengthAdjust="spacing" textLength="275" x="99.4792" y="270.8801">Iterate through table configurations in event</text><rect fill="#1D8102" height="6.25" rx="2.6042" ry="2.6042" style="stroke:#1D8102;stroke-width:1.0416666666666667;" width="380.7292" x="21.875" y="310.2865"/><rect fill="url(#g1x0sif7n5olfd1)" height="45.8008" rx="4.1667" ry="4.1667" style="stroke:#EC7211;stroke-width:0.5208333333333334;" width="152.0833" x="57.8125" y="470.638"/><text fill="#FFFFFF" font-family="Verdana" font-size="12.5" lengthAdjust="spacing" textLength="120.8333" x="73.4375" y="497.8658">Log process status</text><ellipse cx="133.8542" cy="548.7305" fill="none" rx="11.4583" ry="11.4583" style="stroke:#222222;stroke-width:1.0416666666666667;"/><ellipse cx="133.8542" cy="548.7305" fill="#222222" rx="6.25" ry="6.25" style="stroke:#222222;stroke-width:1.0416666666666667;"/><line style="stroke:#0073BB;stroke-width:2.0833333333333335;" x1="15.625" x2="15.625" y1="11.4583" y2="560.1888"/><rect fill="url(#g1x0sif7n5olfd1)" height="45.8008" rx="4.1667" ry="4.1667" style="stroke:#EC7211;stroke-width:0.5208333333333334;" width="352.0833" x="413.0208" y="149.9349"/><text fill="#FFFFFF" font-family="Verdana" font-size="12.5" lengthAdjust="spacing" textLength="320.8333" x="428.6458" y="177.1627">Retrieve DB credentials using secret_id from event</text><line style="stroke:#0073BB;stroke-width:2.0833333333333335;" x1="406.7708" x2="406.7708" y1="11.4583" y2="560.1888"/><rect fill="url(#g1x0sif7n5olfd1)" height="45.8008" rx="4.1667" ry="4.1667" style="stroke:#EC7211;stroke-width:0.5208333333333334;" width="177.0833" x="775.5208" y="243.6523"/><text fill="#FFFFFF" font-family="Verdana" font-size="12.5" lengthAdjust="spacing" textLength="145.8333" x="791.1458" y="270.8801">Read Excel file from S3</text><line style="stroke:#0073BB;stroke-width:2.0833333333333335;" x1="769.2708" x2="769.2708" y1="11.4583" y2="560.1888"/><rect fill="url(#g1x0sif7n5olfd1)" height="45.8008" rx="4.1667" ry="4.1667" style="stroke:#EC7211;stroke-width:0.5208333333333334;" width="208.3333" x="963.0208" y="337.3698"/><text fill="#FFFFFF" font-family="Verdana" font-size="12.5" lengthAdjust="spacing" textLength="177.0833" x="978.6458" y="364.5976">Connect to MySQL database</text><rect fill="url(#g1x0sif7n5olfd1)" height="45.8008" rx="4.1667" ry="4.1667" style="stroke:#EC7211;stroke-width:0.5208333333333334;" width="194.7917" x="969.7917" y="404.0039"/><text fill="#FFFFFF" font-family="Verdana" font-size="12.5" lengthAdjust="spacing" textLength="163.5417" x="985.4167" y="431.2317">Write data to MySQL table</text><line style="stroke:#0073BB;stroke-width:2.0833333333333335;" x1="956.7708" x2="956.7708" y1="11.4583" y2="560.1888"/><line style="stroke:#0073BB;stroke-width:2.0833333333333335;" x1="1175.5208" x2="1175.5208" y1="11.4583" y2="560.1888"/><line style="stroke:#EC7211;stroke-width:3.125;" x1="133.8542" x2="133.8542" y1="62.4674" y2="83.3008"/><polygon fill="#EC7211" points="129.6875,72.8841,133.8542,83.3008,138.0208,72.8841,133.8542,77.0508" style="stroke:#EC7211;stroke-width:1.0416666666666667;"/><line style="stroke:#EC7211;stroke-width:3.125;" x1="236.9792" x2="236.9792" y1="222.819" y2="243.6523"/><polygon fill="#EC7211" points="232.8125,233.2357,236.9792,243.6523,241.1458,233.2357,236.9792,237.4023" style="stroke:#EC7211;stroke-width:1.0416666666666667;"/><line style="stroke:#EC7211;stroke-width:3.125;" x1="236.9792" x2="236.9792" y1="289.4531" y2="310.2865"/><polygon fill="#EC7211" points="232.8125,299.8698,236.9792,310.2865,241.1458,299.8698,236.9792,304.0365" style="stroke:#EC7211;stroke-width:1.0416666666666667;"/><line style="stroke:#EC7211;stroke-width:3.125;" x1="133.8542" x2="133.8542" y1="516.4388" y2="537.2721"/><polygon fill="#EC7211" points="129.6875,526.8555,133.8542,537.2721,138.0208,526.8555,133.8542,531.0221" style="stroke:#EC7211;stroke-width:1.0416666666666667;"/><line style="stroke:#EC7211;stroke-width:3.125;" x1="1067.1875" x2="1067.1875" y1="383.1706" y2="404.0039"/><polygon fill="#EC7211" points="1063.0208,393.5872,1067.1875,404.0039,1071.3542,393.5872,1067.1875,397.7539" style="stroke:#EC7211;stroke-width:1.0416666666666667;"/><line style="stroke:#EC7211;stroke-width:3.125;" x1="133.8542" x2="133.8542" y1="129.1016" y2="134.3099"/><line style="stroke:#EC7211;stroke-width:3.125;" x1="133.8542" x2="589.0625" y1="134.3099" y2="134.3099"/><line style="stroke:#EC7211;stroke-width:3.125;" x1="589.0625" x2="589.0625" y1="134.3099" y2="149.9349"/><polygon fill="#EC7211" points="584.8958,139.5182,589.0625,149.9349,593.2292,139.5182,589.0625,143.6849" style="stroke:#EC7211;stroke-width:1.0416666666666667;"/><line style="stroke:#EC7211;stroke-width:3.125;" x1="29.1667" x2="29.1667" y1="222.819" y2="226.9857"/><line style="stroke:#EC7211;stroke-width:3.125;" x1="29.1667" x2="864.0625" y1="226.9857" y2="226.9857"/><line style="stroke:#EC7211;stroke-width:3.125;" x1="864.0625" x2="864.0625" y1="226.9857" y2="243.6523"/><polygon fill="#EC7211" points="859.8958,233.2357,864.0625,243.6523,868.2292,233.2357,864.0625,237.4023" style="stroke:#EC7211;stroke-width:1.0416666666666667;"/><line style="stroke:#EC7211;stroke-width:3.125;" x1="864.0625" x2="864.0625" y1="289.4531" y2="295.7031"/><line style="stroke:#EC7211;stroke-width:3.125;" x1="864.0625" x2="29.1667" y1="295.7031" y2="295.7031"/><line style="stroke:#EC7211;stroke-width:3.125;" x1="29.1667" x2="29.1667" y1="295.7031" y2="310.2865"/><polygon fill="#EC7211" points="25,299.8698,29.1667,310.2865,33.3333,299.8698,29.1667,304.0365" style="stroke:#EC7211;stroke-width:1.0416666666666667;"/><line style="stroke:#EC7211;stroke-width:3.125;" x1="589.0625" x2="589.0625" y1="195.7357" y2="200.944"/><line style="stroke:#EC7211;stroke-width:3.125;" x1="589.0625" x2="133.8542" y1="200.944" y2="200.944"/><line style="stroke:#EC7211;stroke-width:3.125;" x1="133.8542" x2="133.8542" y1="200.944" y2="216.569"/><polygon fill="#EC7211" points="129.6875,206.1523,133.8542,216.569,138.0208,206.1523,133.8542,210.319" style="stroke:#EC7211;stroke-width:1.0416666666666667;"/><line style="stroke:#EC7211;stroke-width:3.125;" x1="133.8542" x2="133.8542" y1="316.5365" y2="321.7448"/><line style="stroke:#EC7211;stroke-width:3.125;" x1="133.8542" x2="1067.1875" y1="321.7448" y2="321.7448"/><line style="stroke:#EC7211;stroke-width:3.125;" x1="1067.1875" x2="1067.1875" y1="321.7448" y2="337.3698"/><polygon fill="#EC7211" points="1063.0208,326.9531,1067.1875,337.3698,1071.3542,326.9531,1067.1875,331.1198" style="stroke:#EC7211;stroke-width:1.0416666666666667;"/><line style="stroke:#EC7211;stroke-width:3.125;" x1="1067.1875" x2="1067.1875" y1="449.8047" y2="455.013"/><line style="stroke:#EC7211;stroke-width:3.125;" x1="1067.1875" x2="133.8542" y1="455.013" y2="455.013"/><line style="stroke:#EC7211;stroke-width:3.125;" x1="133.8542" x2="133.8542" y1="455.013" y2="470.638"/><polygon fill="#EC7211" points="129.6875,460.2214,133.8542,470.638,138.0208,460.2214,133.8542,464.388" style="stroke:#EC7211;stroke-width:1.0416666666666667;"/><text fill="#EC7211" font-family="Verdana" font-size="12.5" lengthAdjust="spacing" textLength="82.2917" x="170.0521" y="28.2694">AWS Lambda</text><text fill="#EC7211" font-family="Verdana" font-size="12.5" lengthAdjust="spacing" textLength="140.625" x="517.7083" y="28.2694">AWS Secrets Manager</text><text fill="#EC7211" font-family="Verdana" font-size="12.5" lengthAdjust="spacing" textLength="16.6667" x="854.6875" y="28.2694">S3</text><text fill="#EC7211" font-family="Verdana" font-size="12.5" lengthAdjust="spacing" textLength="105.2083" x="1013.5417" y="28.2694">AWS RDS MySQL</text><!--SRC=[NP3DRW8n38JlUOhX0NhY1gSMUgX4LPKzSApCnXkYBWcAlPHA-_1rbgB-dABOtypOdkc1ZmpwaBjSA0LsCyzTJ8pxNRFgy-1VJkAS6-sB3HttdaOdIaNTOiijnpE3pvmKb3pQd9Glklpc6suBg-2P4WKkOvLeYSPZ_G3hUHD6wWM3n1GW4_yMFRgIZrVVvR_iBfTt1upDVBJ73CdZyT9oZoxsV1KsywNrAWaA59DzJF7RfHOMJyg5bA67aeTmWDBU76o7BeR1EZ4dGKotEG2s5M_vrMsxRl3ysRnkfb5MEILk5PglHNWoHnAkqWhiIhIqMlrXfim9-3FVOfC3JYMtB08xjmvYXn3Dfoy0]--></g></svg>