<svg xmlns="http://www.w3.org/2000/svg" xmlns:xlink="http://www.w3.org/1999/xlink" contentStyleType="text/css" height="859.375px" preserveAspectRatio="none" style="width:773px;height:859px;" version="1.1" viewBox="0 0 773 859" width="773.9583px" zoomAndPan="magnify"><defs><linearGradient id="gjoff6n44ptkc0" x1="50%" x2="50%" y1="0%" y2="100%"><stop offset="0%" stop-color="#FFFFFF"/><stop offset="100%" stop-color="#EEEEEE"/></linearGradient><linearGradient id="gjoff6n44ptkc1" x1="50%" x2="50%" y1="0%" y2="100%"><stop offset="0%" stop-color="#F18E3E"/><stop offset="100%" stop-color="#EC7211"/></linearGradient></defs><g><rect fill="url(#gjoff6n44ptkc0)" height="24.9674" style="stroke:url(#gjoff6n44ptkc0);stroke-width:1.0416666666666667;" width="739.5833" x="15.625" y="11.4583"/><ellipse cx="127.6042" cy="52.0508" fill="#0073BB" rx="10.4167" ry="10.4167" style="stroke:#222222;stroke-width:1.0416666666666667;"/><rect fill="url(#gjoff6n44ptkc1)" height="45.8008" rx="4.1667" ry="4.1667" style="stroke:#EC7211;stroke-width:0.5208333333333334;" width="195.8333" x="29.6875" y="83.3008"/><text fill="#FFFFFF" font-family="Verdana" font-size="12.5" lengthAdjust="spacing" textLength="164.5833" x="45.3125" y="110.5286">Check '--JOB_NAME' exists</text><rect fill="url(#gjoff6n44ptkc1)" height="45.8008" rx="4.1667" ry="4.1667" style="stroke:#EC7211;stroke-width:0.5208333333333334;" width="189.5833" x="32.8125" y="206.1686"/><text fill="#FFFFFF" font-family="Verdana" font-size="12.5" lengthAdjust="spacing" textLength="158.3333" x="48.4375" y="233.3964">Add '--JOB_NAME' to args</text><polygon fill="#EEEEEE" points="43.75,149.9349,211.4583,149.9349,223.9583,162.4349,211.4583,174.9349,43.75,174.9349,31.25,162.4349,43.75,149.9349" style="stroke:#BEBEBE;stroke-width:0.5208333333333334;"/><text fill="#4E5D6C" font-family="Verdana" font-size="12.5" lengthAdjust="spacing" textLength="22.9167" x="136.9792" y="191.746">yes</text><text fill="#4E5D6C" font-family="Verdana" font-size="12.5" lengthAdjust="spacing" textLength="157.2917" x="48.9583" y="166.7623">'--JOB_NAME' not present</text><polygon fill="#EEEEEE" points="127.6042,272.8027,140.1042,285.3027,127.6042,297.8027,115.1042,285.3027,127.6042,272.8027" style="stroke:#BEBEBE;stroke-width:0.5208333333333334;"/><line style="stroke:#0073BB;stroke-width:2.0833333333333335;" x1="15.625" x2="15.625" y1="11.4583" y2="847.8373"/><rect fill="url(#gjoff6n44ptkc1)" height="45.8008" rx="4.1667" ry="4.1667" style="stroke:#EC7211;stroke-width:0.5208333333333334;" width="205.2083" x="262.5" y="318.6361"/><text fill="#FFFFFF" font-family="Verdana" font-size="12.5" lengthAdjust="spacing" textLength="173.9583" x="278.125" y="345.8639">Parse 'JOB_NAME' from args</text><rect fill="url(#gjoff6n44ptkc1)" height="45.8008" rx="4.1667" ry="4.1667" style="stroke:#EC7211;stroke-width:0.5208333333333334;" width="161.4583" x="284.375" y="385.2702"/><text fill="#FFFFFF" font-family="Verdana" font-size="12.5" lengthAdjust="spacing" textLength="130.2083" x="300" y="412.498">Create SparkContext</text><rect fill="url(#gjoff6n44ptkc1)" height="45.8008" rx="4.1667" ry="4.1667" style="stroke:#EC7211;stroke-width:0.5208333333333334;" width="153.125" x="288.5417" y="451.9043"/><text fill="#FFFFFF" font-family="Verdana" font-size="12.5" lengthAdjust="spacing" textLength="121.875" x="304.1667" y="479.1321">Create GlueContext</text><rect fill="url(#gjoff6n44ptkc1)" height="45.8008" rx="4.1667" ry="4.1667" style="stroke:#EC7211;stroke-width:0.5208333333333334;" width="106.25" x="311.9792" y="518.5384"/><text fill="#FFFFFF" font-family="Verdana" font-size="12.5" lengthAdjust="spacing" textLength="75" x="327.6042" y="545.7662">Initialize Job</text><line style="stroke:#0073BB;stroke-width:2.0833333333333335;" x1="256.25" x2="256.25" y1="11.4583" y2="847.8373"/><rect fill="url(#gjoff6n44ptkc1)" height="45.8008" rx="4.1667" ry="4.1667" style="stroke:#EC7211;stroke-width:0.5208333333333334;" width="238.5417" x="478.125" y="585.1725"/><text fill="#FFFFFF" font-family="Verdana" font-size="12.5" lengthAdjust="spacing" textLength="207.2917" x="493.75" y="612.4003">For each S3 to RDS configuration</text><polygon fill="#EEEEEE" points="526.5625,695.8842,668.2292,695.8842,680.7292,708.3842,668.2292,720.8842,526.5625,720.8842,514.0625,708.3842,526.5625,695.8842" style="stroke:#BEBEBE;stroke-width:0.5208333333333334;"/><text fill="#4E5D6C" font-family="Verdana" font-size="12.5" lengthAdjust="spacing" textLength="131.25" x="531.7708" y="712.7116">More configurations?</text><text fill="#4E5D6C" font-family="Verdana" font-size="12.5" lengthAdjust="spacing" textLength="22.9167" x="685.9375" y="700.2279">yes</text><ellipse cx="597.3958" cy="836.379" fill="none" rx="11.4583" ry="11.4583" style="stroke:#222222;stroke-width:1.0416666666666667;"/><ellipse cx="597.3958" cy="836.379" fill="#222222" rx="6.25" ry="6.25" style="stroke:#222222;stroke-width:1.0416666666666667;"/><line style="stroke:#0073BB;stroke-width:2.0833333333333335;" x1="471.875" x2="471.875" y1="11.4583" y2="847.8373"/><line style="stroke:#0073BB;stroke-width:2.0833333333333335;" x1="748.9583" x2="748.9583" y1="11.4583" y2="847.8373"/><line style="stroke:#EC7211;stroke-width:3.125;" x1="127.6042" x2="127.6042" y1="62.4674" y2="83.3008"/><polygon fill="#EC7211" points="123.4375,72.8841,127.6042,83.3008,131.7708,72.8841,127.6042,77.0508" style="stroke:#EC7211;stroke-width:1.0416666666666667;"/><line style="stroke:#EC7211;stroke-width:3.125;" x1="127.6042" x2="127.6042" y1="174.9349" y2="206.1686"/><polygon fill="#EC7211" points="123.4375,195.752,127.6042,206.1686,131.7708,195.752,127.6042,199.9186" style="stroke:#EC7211;stroke-width:1.0416666666666667;"/><line style="stroke:#EC7211;stroke-width:3.125;" x1="223.9583" x2="236.4583" y1="162.4349" y2="162.4349"/><polygon fill="#EC7211" points="232.2917,223.8607,236.4583,234.2773,240.625,223.8607,236.4583,228.0273" style="stroke:#EC7211;stroke-width:3.125;"/><line style="stroke:#EC7211;stroke-width:3.125;" x1="236.4583" x2="236.4583" y1="162.4349" y2="285.3027"/><line style="stroke:#EC7211;stroke-width:3.125;" x1="236.4583" x2="140.1042" y1="285.3027" y2="285.3027"/><polygon fill="#EC7211" points="150.5208,281.1361,140.1042,285.3027,150.5208,289.4694,146.3542,285.3027" style="stroke:#EC7211;stroke-width:1.0416666666666667;"/><line style="stroke:#EC7211;stroke-width:3.125;" x1="127.6042" x2="127.6042" y1="251.9694" y2="272.8027"/><polygon fill="#EC7211" points="123.4375,262.3861,127.6042,272.8027,131.7708,262.3861,127.6042,266.5527" style="stroke:#EC7211;stroke-width:1.0416666666666667;"/><line style="stroke:#EC7211;stroke-width:3.125;" x1="127.6042" x2="127.6042" y1="129.1016" y2="149.9349"/><polygon fill="#EC7211" points="123.4375,139.5182,127.6042,149.9349,131.7708,139.5182,127.6042,143.6849" style="stroke:#EC7211;stroke-width:1.0416666666666667;"/><line style="stroke:#EC7211;stroke-width:3.125;" x1="365.1042" x2="365.1042" y1="364.4368" y2="385.2702"/><polygon fill="#EC7211" points="360.9375,374.8535,365.1042,385.2702,369.2708,374.8535,365.1042,379.0202" style="stroke:#EC7211;stroke-width:1.0416666666666667;"/><line style="stroke:#EC7211;stroke-width:3.125;" x1="365.1042" x2="365.1042" y1="431.071" y2="451.9043"/><polygon fill="#EC7211" points="360.9375,441.4876,365.1042,451.9043,369.2708,441.4876,365.1042,445.6543" style="stroke:#EC7211;stroke-width:1.0416666666666667;"/><line style="stroke:#EC7211;stroke-width:3.125;" x1="365.1042" x2="365.1042" y1="497.7051" y2="518.5384"/><polygon fill="#EC7211" points="360.9375,508.1217,365.1042,518.5384,369.2708,508.1217,365.1042,512.2884" style="stroke:#EC7211;stroke-width:1.0416666666666667;"/><line style="stroke:#EC7211;stroke-width:3.125;" x1="597.3958" x2="597.3958" y1="630.9733" y2="646.5902"/><line style="stroke:#EC7211;stroke-width:3.125;" x1="680.7292" x2="729.1667" y1="708.3842" y2="708.3842"/><polygon fill="#EC7211" points="725,651.8066,729.1667,641.39,733.3333,651.8066,729.1667,647.64" style="stroke:#EC7211;stroke-width:3.125;"/><line style="stroke:#EC7211;stroke-width:3.125;" x1="729.1667" x2="729.1667" y1="608.0729" y2="708.3842"/><line style="stroke:#EC7211;stroke-width:3.125;" x1="729.1667" x2="716.6667" y1="608.0729" y2="608.0729"/><polygon fill="#EC7211" points="727.0833,603.9063,716.6667,608.0729,727.0833,612.2396,722.9167,608.0729" style="stroke:#EC7211;stroke-width:1.0416666666666667;"/><line style="stroke:#EC7211;stroke-width:3.125;" x1="597.3958" x2="597.3958" y1="646.5902" y2="695.8842"/><polygon fill="#EC7211" points="593.2292,685.4675,597.3958,695.8842,601.5625,685.4675,597.3958,689.6342" style="stroke:#EC7211;stroke-width:1.0416666666666667;"/><text fill="#4E5D6C" font-family="Verdana" font-size="12.5" lengthAdjust="spacing" textLength="132.2917" x="606.7708" y="675.2116">[Write] :To RDS table</text><line style="stroke:#EC7211;stroke-width:3.125;" x1="597.3958" x2="597.3958" y1="720.8842" y2="824.9207"/><polygon fill="#EC7211" points="593.2292,814.504,597.3958,824.9207,601.5625,814.504,597.3958,818.6707" style="stroke:#EC7211;stroke-width:1.0416666666666667;"/><text fill="#4E5D6C" font-family="Verdana" font-size="12.5" lengthAdjust="spacing" textLength="26.0417" x="606.7708" y="744.2891">(no)</text><text fill="#4E5D6C" font-family="Verdana" font-size="12.5" lengthAdjust="spacing" textLength="4.1667" x="606.7708" y="758.8399"> </text><text fill="#4E5D6C" font-family="Verdana" font-size="12.5" lengthAdjust="spacing" textLength="20.8333" x="611.9792" y="780.6824">Job</text><line style="stroke:#4E5D6C;stroke-width:1.0416666666666667;" x1="606.7708" x2="638.0208" y1="763.8713" y2="763.8713"/><line style="stroke:#4E5D6C;stroke-width:1.0416666666666667;" x1="606.7708" x2="638.0208" y1="788.8387" y2="788.8387"/><line style="stroke:#4E5D6C;stroke-width:1.0416666666666667;" x1="606.7708" x2="606.7708" y1="763.8713" y2="788.8387"/><line style="stroke:#4E5D6C;stroke-width:1.0416666666666667;" x1="638.0208" x2="638.0208" y1="763.8713" y2="788.8387"/><text fill="#4E5D6C" font-family="Verdana" font-size="12.5" lengthAdjust="spacing" textLength="76.0417" x="606.7708" y="802.5248">:Commit Job</text><line style="stroke:#EC7211;stroke-width:3.125;" x1="127.6042" x2="127.6042" y1="297.8027" y2="303.0111"/><line style="stroke:#EC7211;stroke-width:3.125;" x1="127.6042" x2="365.1042" y1="303.0111" y2="303.0111"/><line style="stroke:#EC7211;stroke-width:3.125;" x1="365.1042" x2="365.1042" y1="303.0111" y2="318.6361"/><polygon fill="#EC7211" points="360.9375,308.2194,365.1042,318.6361,369.2708,308.2194,365.1042,312.3861" style="stroke:#EC7211;stroke-width:1.0416666666666667;"/><line style="stroke:#EC7211;stroke-width:3.125;" x1="365.1042" x2="365.1042" y1="564.3392" y2="569.5475"/><line style="stroke:#EC7211;stroke-width:3.125;" x1="365.1042" x2="597.3958" y1="569.5475" y2="569.5475"/><line style="stroke:#EC7211;stroke-width:3.125;" x1="597.3958" x2="597.3958" y1="569.5475" y2="585.1725"/><polygon fill="#EC7211" points="593.2292,574.7559,597.3958,585.1725,601.5625,574.7559,597.3958,578.9225" style="stroke:#EC7211;stroke-width:1.0416666666666667;"/><text fill="#EC7211" font-family="Verdana" font-size="12.5" lengthAdjust="spacing" textLength="67.7083" x="102.0833" y="28.2694">Arguments</text><text fill="#EC7211" font-family="Verdana" font-size="12.5" lengthAdjust="spacing" textLength="61.4583" x="333.3333" y="28.2694">Job Setup</text><text fill="#EC7211" font-family="Verdana" font-size="12.5" lengthAdjust="spacing" textLength="84.375" x="568.2292" y="28.2694">Data Transfer</text><!--SRC=[LP11IyD048Nl-ol6KvD3JjuIgDHKnK9Lce874PacasHfiXDc9xHAVhmhhPHUvxtvvisxqPPw0ZpuX0LTGsPQI3FsvDHFnYkAcZHlgTp3B4bMh_TVBulrmmpeQBtwpDWQeYl1iS8Wv0CWXW1t47sJZmr0kgYgQuWoe3I1GgwojJ7JYdTGa8x3PD8t54ymkxXhuVxiJtCXL89YGDddx9IEUfa-TIDTXi_EgiNE_X04V1QkB54Hjk5RNvDCHcW8Qv0-iW1XsK9n-vTiiooWP5VRPXHKoouBFoJpZmrXzHdSVsc2SpUMUzApzYvMAOZRqxhYhgFi_y2XjHr1j6QXQx2_Yy7wSq_972B7yQcCK4FEVM_r5Dqh3xy0]--></g></svg>